<svg xmlns="http://www.w3.org/2000/svg" width="980" height="420" viewBox="0 0 980 420">
  <rect width="100%" height="100%" fill="#ffffff"/>
  <text x="68" y="26" font-size="20" font-weight="700" fill="#0f172a">macOS host StarryOS build CPU curve (-j8)</text>
  <line x1='56.9' y1='46' x2='56.9' y2='364' stroke='#f1f5f9'/><text x='56.9' y='388' text-anchor='middle' font-size='12' fill='#475569'>0s</text><line x1='270.6' y1='46' x2='270.6' y2='364' stroke='#f1f5f9'/><text x='270.6' y='388' text-anchor='middle' font-size='12' fill='#475569'>10s</text><line x1='484.4' y1='46' x2='484.4' y2='364' stroke='#f1f5f9'/><text x='484.4' y='388' text-anchor='middle' font-size='12' fill='#475569'>20s</text><line x1='698.1' y1='46' x2='698.1' y2='364' stroke='#f1f5f9'/><text x='698.1' y='388' text-anchor='middle' font-size='12' fill='#475569'>30s</text><line x1='911.8' y1='46' x2='911.8' y2='364' stroke='#f1f5f9'/><text x='911.8' y='388' text-anchor='middle' font-size='12' fill='#475569'>40s</text>
  <line x1='68' y1='364.0' x2='956' y2='364.0' stroke='#e5e7eb'/><text x='58' y='368.0' text-anchor='end' font-size='12' fill='#475569'>0%</text><line x1='68' y1='324.2' x2='956' y2='324.2' stroke='#e5e7eb'/><text x='58' y='328.2' text-anchor='end' font-size='12' fill='#475569'>100%</text><line x1='68' y1='284.5' x2='956' y2='284.5' stroke='#e5e7eb'/><text x='58' y='288.5' text-anchor='end' font-size='12' fill='#475569'>200%</text><line x1='68' y1='244.8' x2='956' y2='244.8' stroke='#e5e7eb'/><text x='58' y='248.8' text-anchor='end' font-size='12' fill='#475569'>300%</text><line x1='68' y1='205.0' x2='956' y2='205.0' stroke='#e5e7eb'/><text x='58' y='209.0' text-anchor='end' font-size='12' fill='#475569'>400%</text><line x1='68' y1='165.2' x2='956' y2='165.2' stroke='#e5e7eb'/><text x='58' y='169.2' text-anchor='end' font-size='12' fill='#475569'>500%</text><line x1='68' y1='125.5' x2='956' y2='125.5' stroke='#e5e7eb'/><text x='58' y='129.5' text-anchor='end' font-size='12' fill='#475569'>600%</text><line x1='68' y1='85.8' x2='956' y2='85.8' stroke='#e5e7eb'/><text x='58' y='89.8' text-anchor='end' font-size='12' fill='#475569'>700%</text><line x1='68' y1='46.0' x2='956' y2='46.0' stroke='#e5e7eb'/><text x='58' y='50.0' text-anchor='end' font-size='12' fill='#475569'>800%</text>
  <line x1="68" y1="46.0" x2="956" y2="46.0" stroke="#dc2626" stroke-width="1.4" stroke-dasharray="6 5"/>
  <text x="956" y="38.0" text-anchor="end" font-size="12" fill="#dc2626">8-core full = 800%</text>
  <polyline points="68.0,324.2 90.7,85.8 113.0,244.8 135.0,284.5 157.4,244.8 179.5,244.8 202.1,125.5 224.5,244.8 246.7,244.8 268.9,244.8 291.3,125.5 313.5,125.5 335.6,125.5 357.8,46.0 380.2,46.0 402.6,85.8 425.0,125.5 447.4,125.5 469.9,85.8 492.2,85.8 514.6,125.5 536.7,165.2 559.2,284.5 581.3,324.2 603.3,324.2 625.6,324.2 647.7,324.2 669.7,324.2 691.7,324.2 713.7,324.2 735.8,324.2 757.7,324.2 779.8,324.2 801.9,324.2 824.0,324.2 845.9,324.2 868.0,324.2 890.0,324.2 912.0,324.2 934.0,324.2 956.0,324.2" fill="none" stroke="#94a3b8" stroke-width="1.6" stroke-dasharray="4 4"/>
  <polyline points="68.0,364.0 90.7,296.9 113.0,256.1 135.0,294.0 157.4,244.8 179.5,313.4 202.1,291.3 224.5,320.6 246.7,301.7 268.9,328.5 291.3,298.0 313.5,350.1 335.6,363.7 357.8,300.1 380.2,339.8 402.6,290.2 425.0,299.0 447.4,320.3 469.9,284.0 492.2,324.7 514.6,353.3 536.7,326.6 559.2,364.0 581.3,359.5 603.3,325.1 625.6,309.3 647.7,319.2 669.7,327.0 691.7,324.6 713.7,324.7 735.8,325.0 757.7,324.6 779.8,324.8 801.9,325.1 824.0,325.2 845.9,324.8 868.0,324.6 890.0,324.2 912.0,325.0 934.0,324.9 956.0,325.0" fill="none" stroke="#2563eb" stroke-width="2.4"/>
  <text x="68" y="406" font-size="12" fill="#475569">x: compile window seconds; blue: process-tree summed %CPU; gray dashed: rustc count x 100</text>
</svg>
